<?xml version="1.0" standalone="no"?><!DOCTYPE svg PUBLIC "-//W3C//DTD SVG 1.1//EN" "http://www.w3.org/Graphics/SVG/1.1/DTD/svg11.dtd"><svg t="1555051155678" class="icon" style="" viewBox="0 0 1024 1024" version="1.1" xmlns="http://www.w3.org/2000/svg" p-id="1929" xmlns:xlink="http://www.w3.org/1999/xlink" width="200" height="200"><defs><style type="text/css"></style></defs><path d="M793.203613 302.790194v-19.819355c0-61.208774-50.621935-112.293161-111.219613-112.293162H392.654452l-2.378323-3.749161-25.765161-37.656774C346.112 102.18529 309.793032 82.580645 281.236645 82.580645H109.287226C80.962065 82.580645 57.806452 102.18529 57.806452 129.271742v625.416258l94.29058-346.194581c15.789419-57.707355 87.188645-105.68671 157.018839-105.686709h484.087742zM342.032516 346.83871c-62.315355 0-125.885935 40.497548-139.957677 89.17058L82.233806 852.248774C68.195097 900.888774 108.411871 941.419355 170.71071 941.419355h532.925935c62.315355 0 125.852903-40.530581 139.957678-89.170581l119.791483-416.206451c14.055226-48.673032-26.145032-89.170581-88.460387-89.170581H342.032516V346.83871z m105.092129 406.742709V611.096774h-56.666839c-24.427355-13.675355 7.993806-37.888 7.993807-37.888s105.339871-88.080516 118.982193-93.580387c21.603097-15.855484 31.132903 0 31.132904 0s121.756903 90.277161 133.41729 105.273807c5.665032 24.014452-2.34529 26.211097-2.34529 26.211096h-59.507613v144.450065c0 18.514581-16.004129 31.727484-35.080258 31.727484h-105.521549c-18.993548-0.016516-32.404645-15.459097-32.404645-33.70942z" p-id="1930" fill="#ffffff"></path></svg>