<?xml version="1.0" standalone="no"?><!DOCTYPE svg PUBLIC "-//W3C//DTD SVG 1.1//EN" "http://www.w3.org/Graphics/SVG/1.1/DTD/svg11.dtd"><svg t="1555051703095" class="icon" style="" viewBox="0 0 1024 1024" version="1.1" xmlns="http://www.w3.org/2000/svg" p-id="10108" xmlns:xlink="http://www.w3.org/1999/xlink" width="200" height="200"><defs><style type="text/css"></style></defs><path d="M928 384h-512C364.8 384 320 428.8 320 480v384c0 51.2 44.8 96 96 96h512c51.2 0 96-44.8 96-96v-384c0-51.2-44.8-96-96-96z m32 480c0 19.2-12.8 32-32 32h-512c-19.2 0-32-12.8-32-32v-384c0-19.2 12.8-32 32-32h512c19.2 0 32 12.8 32 32v384z" fill="#ffffff" p-id="10109"></path><path d="M512 192l-57.6 57.6c-12.8 12.8-12.8 32 0 44.8s32 12.8 44.8 0l115.2-115.2c12.8-12.8 12.8-32 0-44.8L499.2 25.6c-12.8-12.8-32-12.8-44.8 0-12.8 12.8-12.8 32 0 44.8l64 64H512C249.6 128 32 345.6 32 608c0 19.2 12.8 32 32 32s32-12.8 32-32C96 377.6 281.6 192 512 192z" fill="#ffffff" p-id="10110"></path></svg>