<?xml version="1.0" standalone="no"?><!DOCTYPE svg PUBLIC "-//W3C//DTD SVG 1.1//EN" "http://www.w3.org/Graphics/SVG/1.1/DTD/svg11.dtd"><svg t="1555052402366" class="icon" style="" viewBox="0 0 1024 1024" version="1.1" xmlns="http://www.w3.org/2000/svg" p-id="26572" xmlns:xlink="http://www.w3.org/1999/xlink" width="200" height="200"><defs><style type="text/css"></style></defs><path d="M898.848 696.368c-12.56 0-22.752-9.552-22.752-21.392V247.312c0-23.6-20.384-42.768-45.52-42.768H375.472c-12.56 0-22.752-9.568-22.752-21.392 0-11.808 10.192-21.376 22.752-21.376h477.872c37.68 0 68.256 28.704 68.256 64.144v449.056c0 11.856-10.192 21.392-22.752 21.392z m-91.04-363.52v513.216c0 35.44-30.56 64.16-68.256 64.16H170.672c-37.696 0-68.272-28.72-68.272-64.16V332.848c0-35.424 30.56-64.16 68.272-64.16h568.896c37.68 0 68.24 28.736 68.24 64.16z m-614.384-21.376c-25.12 0-45.504 19.152-45.504 42.768v470.448c0 23.6 20.384 42.784 45.504 42.784H716.8c25.12 0 45.52-19.184 45.52-42.784V354.24c0-23.616-20.384-42.768-45.52-42.768H193.424z" p-id="26573" fill="#ffffff"></path></svg>